<?xml version="1.0" encoding="UTF-8"?>
<svg xmlns="http://www.w3.org/2000/svg" version="1.1" viewBox="0 0 59.78 64.32">
  <defs>
    <style>
      .cls-1 {
        fill: currentColor;
      }
    </style>
  </defs>
  <!-- Generator: Adobe Illustrator 28.7.1, SVG Export Plug-In . SVG Version: 1.2.0 Build 142)  -->
  <g>
    <g id="_レイヤー_1" data-name="レイヤー_1">
      <path class="cls-1" d="M.42,64.23v-2.79l5.34-10.07c.27-.5.43-.94.47-1.32s.06-.85.06-1.41c0-.25,0-.52-.01-.8s-.06-.53-.16-.74-.24-.39-.44-.54c-.19-.14-.47-.22-.84-.22-.45,0-.8.13-1.06.38s-.39.62-.39,1.1v1.68H.43v-1.63c0-.62.12-1.2.35-1.74.23-.54.55-1.02.96-1.42.39-.41.85-.73,1.39-.97s1.12-.36,1.74-.36c.77,0,1.44.14,1.99.42s1.01.66,1.38,1.15c.35.48.61,1.04.77,1.65.17.62.25,1.28.25,1.97,0,.5-.01.92-.03,1.26s-.06.66-.12.97-.16.62-.29.93c-.14.31-.32.69-.55,1.13l-4.35,8.39h5.34v2.96H.44l-.02.02Z"/>
      <path class="cls-1" d="M17.02,47.83c0-.7.12-1.32.36-1.86s.57-1.01.97-1.39.87-.68,1.41-.89,1.09-.31,1.67-.31,1.14.1,1.67.31,1,.5,1.41.89.73.85.97,1.39.36,1.16.36,1.86v12.13c0,.7-.12,1.32-.36,1.86-.24.54-.57,1.01-.97,1.39-.41.39-.87.68-1.41.89s-1.09.31-1.67.31-1.14-.1-1.67-.31-1-.5-1.41-.89-.73-.85-.97-1.39-.36-1.16-.36-1.86v-12.13ZM19.98,59.96c0,.43.14.78.41,1.06s.62.42,1.05.42.77-.14,1.05-.42c.27-.28.41-.63.41-1.06v-12.13c0-.43-.14-.78-.41-1.06s-.62-.42-1.05-.42-.77.14-1.05.42c-.27.28-.41.63-.41,1.06v12.13Z"/>
      <path class="cls-1" d="M33.63,64.23v-2.79l5.34-10.07c.27-.5.43-.94.46-1.32.04-.38.06-.85.06-1.41,0-.25,0-.52-.01-.8s-.06-.53-.16-.74-.24-.39-.43-.54c-.19-.14-.48-.22-.84-.22-.45,0-.8.13-1.06.38s-.39.62-.39,1.1v1.68h-2.96v-1.63c0-.62.12-1.2.35-1.74.23-.54.55-1.02.96-1.42.39-.41.85-.73,1.39-.97s1.12-.36,1.74-.36c.77,0,1.44.14,1.99.42s1.01.66,1.38,1.15c.35.48.6,1.04.77,1.65s.25,1.28.25,1.97c0,.5,0,.92-.03,1.26-.02.34-.06.66-.12.97s-.16.62-.29.93c-.14.31-.32.69-.55,1.13l-4.36,8.39h5.34v2.96h-8.82v.02Z"/>
      <path class="cls-1" d="M55.39,64.23v-3.08h-5.89v-2.79l4.27-14.8h3.14l-4.44,14.8h2.93v-5.89h2.96v5.89h1.42v2.79h-1.42v3.08h-2.97Z"/>
      <path class="cls-1" d="M5.71,3.96c0-.4-.04-1.13-.47-1.69-.27-.31-.69-.64-1.49-.64-.4,0-.93.09-1.35.51-.53.55-.58,1.29-.58,1.89,0,.47.02,1.26.4,1.86.31.44.84.71,1.22.84l1.42.51c.64.22,1.46.6,1.97,1.31.55.75.62,1.6.62,2.57v.55c0,1.53-.42,2.66-1.02,3.33-.55.58-1.53.98-2.77.98-1.53,0-2.51-.55-2.99-1.22-.67-.89-.67-2.37-.67-2.57v-.55h1.66v.44c0,.42.07,1.15.44,1.64.49.58,1.15.64,1.53.64,1.02,0,1.46-.4,1.71-.69.42-.53.44-1.26.44-1.8v-.6c0-.6-.07-1.38-.44-1.84-.38-.51-1-.75-1.26-.84l-1.69-.6c-.75-.27-1.51-.69-1.93-1.66-.29-.69-.31-1.44-.31-2.2v-.47C.15,2.42.62,1.49,1.26.89c.69-.67,1.57-.89,2.55-.89,2.13,0,3.55,1.38,3.55,3.86v.53h-1.66v-.44h.01Z"/>
      <path class="cls-1" d="M13.28.24h3.37c2.79,0,3.84,1.82,3.84,3.95v1.38c0,2-1.29,3.79-3.5,3.79h-2.04v6.41h-1.66V.24h0ZM14.95,7.93h1.57c1.53,0,2.31-1.02,2.31-2.11v-1.84c0-1.42-.73-2.31-2.28-2.31h-1.6v6.26h0Z"/>
      <path class="cls-1" d="M31.23,3.59c0-.55-.22-1.95-1.82-1.95-1.75,0-1.91,1.51-1.91,2.35v8.36c0,.55.24,2.02,1.8,2.02.87,0,1.93-.38,1.93-2.17v-.49h1.69v.58c0,2.22-1.02,3.7-3.68,3.7-3.11,0-3.39-2.53-3.39-3.42V3.39C25.85,1.64,27.07.02,29.33.02c1.93,0,3.53.93,3.53,3.39v1h-1.62v-.82h0Z"/>
      <path class="cls-1" d="M2.07,21.48v8.25l4.19-8.25h1.69l-3.17,6.19,3.82,9.34h-1.8l-3.04-7.74-1.69,3.28v4.46H.41v-15.53h1.66Z"/>
      <path class="cls-1" d="M17.76,30.46v6.54h-1.66v-6.61l-3.24-8.92h1.84l2.26,6.77h.07l2.24-6.77h1.75l-3.26,8.98h0Z"/>
      <path class="cls-1" d="M26.13,25.4c0-1.15.09-2.26,1.11-3.22.62-.6,1.51-.93,2.62-.93s2,.33,2.62.93c1.02.95,1.11,2.06,1.11,3.22v7.68c0,1.15-.09,2.26-1.11,3.22-.62.6-1.51.93-2.62.93s-2-.33-2.62-.93c-1.02-.95-1.11-2.06-1.11-3.22v-7.68ZM31.92,25.05c0-.55-.04-1.11-.58-1.62-.31-.31-.82-.55-1.49-.55s-1.18.24-1.49.55c-.53.51-.58,1.06-.58,1.62v8.38c0,.55.04,1.11.58,1.64.31.29.82.53,1.49.53s1.18-.24,1.49-.53c.53-.53.58-1.09.58-1.64v-8.38Z"/>
      <path class="cls-1" d="M46.14,21.48v1.53h-2.88v14h-1.66v-14h-2.86v-1.53h7.41-.01Z"/>
      <path class="cls-1" d="M51.29,25.4c0-1.15.09-2.26,1.11-3.22.62-.6,1.51-.93,2.62-.93s2,.33,2.62.93c1.02.95,1.11,2.06,1.11,3.22v7.68c0,1.15-.09,2.26-1.11,3.22-.62.6-1.51.93-2.62.93s-2-.33-2.62-.93c-1.02-.95-1.11-2.06-1.11-3.22v-7.68ZM57.08,25.05c0-.55-.04-1.11-.58-1.62-.31-.31-.82-.55-1.49-.55s-1.18.24-1.49.55c-.53.51-.58,1.06-.58,1.62v8.38c0,.55.04,1.11.58,1.64.31.29.82.53,1.49.53s1.18-.24,1.49-.53c.53-.53.58-1.09.58-1.64v-8.38Z"/>
    </g>
  </g>
</svg>